<?xml version="1.0" encoding="UTF-8" standalone="no"?>
<svg
   height="1171"
   width="1024"
   version="1.1"
   id="svg12"
   sodipodi:docname="Simplified Godot logo2.svg"
   xml:space="preserve"
   inkscape:version="1.2.2 (732a01da63, 2022-12-09)"
   inkscape:export-filename="Simplified Godot Icon3.png"
   inkscape:export-xdpi="96"
   inkscape:export-ydpi="96"
   xmlns:inkscape="http://www.inkscape.org/namespaces/inkscape"
   xmlns:sodipodi="http://sodipodi.sourceforge.net/DTD/sodipodi-0.dtd"
   xmlns="http://www.w3.org/2000/svg"
   xmlns:svg="http://www.w3.org/2000/svg"><defs
     id="defs16"><inkscape:path-effect
       effect="mirror_symmetry"
       start_point="512,-27.463601"
       end_point="512,1052.5364"
       center_point="512,512.5364"
       id="path-effect2400"
       is_visible="true"
       lpeversion="1.2"
       lpesatellites=""
       mode="free"
       discard_orig_path="false"
       fuse_paths="false"
       oposite_fuse="false"
       split_items="false"
       split_open="false"
       link_styles="false" /></defs><sodipodi:namedview
     id="namedview14"
     pagecolor="#2a2d31"
     bordercolor="#000000"
     borderopacity="0.25"
     inkscape:showpageshadow="2"
     inkscape:pageopacity="1"
     inkscape:pagecheckerboard="0"
     inkscape:deskcolor="#d1d1d1"
     showgrid="false"
     inkscape:zoom="0.2261631"
     inkscape:cx="331.61908"
     inkscape:cy="1213.7258"
     inkscape:window-width="1920"
     inkscape:window-height="991"
     inkscape:window-x="-9"
     inkscape:window-y="-9"
     inkscape:window-maximized="1"
     inkscape:current-layer="svg12" /><g
     fill="#fff"
     id="g1461"
     style="display:inline;fill:#ffffff;fill-opacity:0;stroke:#ffffff;stroke-width:50;stroke-dasharray:none;stroke-opacity:1"><path
       style="display:inline;fill:#ffffff;fill-opacity:1;stroke:#519fd9;stroke-width:60;stroke-linecap:round;stroke-linejoin:miter;stroke-dasharray:none;stroke-opacity:1"
       d="m 317.56409,466.83532 v 66.52117 m 388.87182,-66.52117 v 66.52117"
       id="path2398"
       inkscape:path-effect="#path-effect2400"
       inkscape:original-d="m 317.56409,466.83532 v 66.52117"
       class="UnoptimicedTransforms"
       sodipodi:nodetypes="cc"
       transform="matrix(0.56506998,0,0,0.56506998,222.68418,63.987053)" /><path
       style="display:inline;fill:#ffffff;fill-opacity:0;stroke:#519fd9;stroke-width:28.2535;stroke-linecap:round;stroke-linejoin:round;stroke-dasharray:none;stroke-opacity:1"
       d="m 742.15345,289.97159 c 11.98881,-15.09261 23.34125,-31.74082 32.03901,-45.74749 -13.29207,-22.62784 -29.57849,-42.84879 -46.98688,-61.58379 -16.14527,8.12673 -31.82765,17.3332 -46.63924,27.12998 -7.41168,-7.36699 -15.75953,-13.39337 -23.95919,-19.69247 -8.05617,-6.47081 -17.13471,-11.21482 -25.746,-16.74241 2.56386,-19.09253 3.83135,-37.88873 4.34177,-57.5058 -22.21856,-11.18219 -45.91152,-18.596348 -69.87775,-23.921661 -9.56861,16.081761 -18.31922,33.496901 -25.94024,50.521891 -9.03702,-1.51009 -18.11611,-2.06931 -27.20724,-2.17751 v -0.0143 c -0.0635,0 -0.12248,0.0143 -0.17658,0.0143 -0.0564,0 -0.11572,-0.0143 -0.17217,-0.0143 v 0.0143 c -9.10759,0.1082 -18.1789,0.66742 -27.21827,2.17751 -7.61632,-17.02499 -16.36193,-34.44013 -25.94466,-50.521891 -23.95447,5.325313 -47.65049,12.739471 -69.86671,23.921661 0.50807,19.61707 1.77637,38.41327 4.34729,57.5058 -8.62775,5.52759 -17.69521,10.2716 -25.75373,16.74241 -8.18789,6.2991 -16.55067,12.32548 -23.9647,19.69247 -14.81159,-9.79678 -30.48817,-19.00325 -46.63814,-27.12998 -17.40839,18.735 -33.68568,38.95595 -46.98248,61.58379 10.44987,16.40329 21.65884,32.89029 32.03902,45.74749 v 111.76135 14.19518 l 2.3e-4,27.61933 2.3e-4,22.70458 c 0,80.85337 102.56622,119.71587 229.99719,120.16278 h 0.15524 0.1576 c 127.43097,-0.44691 229.96191,-39.30941 229.96191,-120.16278 0,-1.82763 0.11055,-20.22158 0.14819,-28.45416 l -82.17827,7.38109 -2.63678,37.78285 c -0.31754,4.5538 -3.93988,8.17849 -8.49368,8.50544 l -79.3868,6.47081 c -0.22116,0.0158 -0.44221,0.0235 -0.66097,0.0235 -4.50674,0 -8.39488,-3.30714 -9.06053,-7.83271 l -5.20033,-35.26838 h -85.29844 l -5.20032,35.26838 c -0.69859,4.74667 -4.94491,8.19853 -9.7215,7.80919 l -79.38632,-6.47079 c -4.5538,-0.32695 -8.17614,-3.95164 -8.49368,-8.50544 l -2.63685,-37.78285 -39.52144,-4.33848"
       id="path1453"
       sodipodi:nodetypes="cccccccccccsccccccccccccccccccscccccsccccscccc" /><text
       xml:space="preserve"
       style="font-style:normal;font-variant:normal;font-weight:normal;font-stretch:normal;font-size:240px;line-height:0;font-family:'Fredoka One';-inkscape-font-specification:'Fredoka One';fill:#eeeeee;fill-opacity:1;stroke:#ffffff;stroke-width:10;stroke-linecap:square;stroke-linejoin:round;stroke-dasharray:none;stroke-opacity:0"
       x="74.119888"
       y="927.14026"
       id="text2905"><tspan
         sodipodi:role="line"
         id="tspan2903"
         x="74.119888"
         y="927.14026">GODOT</tspan></text><text
       xml:space="preserve"
       style="font-style:normal;font-variant:normal;font-weight:normal;font-stretch:normal;font-size:113.333px;line-height:0;font-family:'Roboto Condensed';-inkscape-font-specification:'Roboto Condensed, ';display:inline;fill:#eeeeee;fill-opacity:1;stroke:#ffffff;stroke-width:10;stroke-linecap:round;stroke-linejoin:round;stroke-dasharray:none;stroke-opacity:0"
       x="217.35078"
       y="1064.5891"
       id="text2959"><tspan
         sodipodi:role="line"
         id="tspan2957"
         x="217.35078"
         y="1064.5891">Game engine</tspan></text></g></svg>
