<?xml version="1.0" encoding="UTF-8" standalone="no"?>
<svg
   height="1024"
   width="2902"
   version="1.1"
   id="svg12"
   sodipodi:docname="Simplified Godot Icon.svg"
   xml:space="preserve"
   inkscape:version="1.2.2 (732a01da63, 2022-12-09)"
   inkscape:export-filename="Simplified Godot Icon11.png"
   inkscape:export-xdpi="96"
   inkscape:export-ydpi="96"
   xmlns:inkscape="http://www.inkscape.org/namespaces/inkscape"
   xmlns:sodipodi="http://sodipodi.sourceforge.net/DTD/sodipodi-0.dtd"
   xmlns="http://www.w3.org/2000/svg"
   xmlns:svg="http://www.w3.org/2000/svg"><defs
     id="defs16"><inkscape:path-effect
       effect="mirror_symmetry"
       start_point="512,-27.463601"
       end_point="512,1052.5364"
       center_point="512,512.5364"
       id="path-effect380"
       is_visible="true"
       lpeversion="1.2"
       lpesatellites=""
       mode="free"
       discard_orig_path="false"
       fuse_paths="false"
       oposite_fuse="false"
       split_items="false"
       split_open="false"
       link_styles="false" /><inkscape:path-effect
       effect="mirror_symmetry"
       start_point="512,-27.463601"
       end_point="512,1052.5364"
       center_point="512,512.5364"
       id="path-effect2400"
       is_visible="true"
       lpeversion="1.2"
       lpesatellites=""
       mode="free"
       discard_orig_path="false"
       fuse_paths="false"
       oposite_fuse="false"
       split_items="false"
       split_open="false"
       link_styles="false" /></defs><sodipodi:namedview
     id="namedview14"
     pagecolor="#478cbf"
     bordercolor="#000000"
     borderopacity="0.25"
     inkscape:showpageshadow="2"
     inkscape:pageopacity="1"
     inkscape:pagecheckerboard="0"
     inkscape:deskcolor="#d1d1d1"
     showgrid="false"
     inkscape:zoom="0.1767767"
     inkscape:cx="825.9007"
     inkscape:cy="585.4844"
     inkscape:window-width="1920"
     inkscape:window-height="991"
     inkscape:window-x="-9"
     inkscape:window-y="-9"
     inkscape:window-maximized="1"
     inkscape:current-layer="svg12" /><g
     fill="#fff"
     id="g1461"
     style="fill:#ffffff;fill-opacity:0;stroke:#ffffff;stroke-width:50;stroke-dasharray:none;stroke-opacity:1"><path
       style="display:inline;fill:#ffffff;fill-opacity:1;stroke:#ffffff;stroke-width:60;stroke-linecap:round;stroke-linejoin:miter;stroke-dasharray:none;stroke-opacity:1"
       d="m 317.56409,466.83532 v 66.52117 m 388.87182,-66.52117 v 66.52117"
       id="path376"
       sodipodi:nodetypes="cc"
       transform="translate(24.318734,25.025939)"
       inkscape:original-d="m 317.56409,466.83532 v 66.52117"
       inkscape:path-effect="#path-effect380"
       class="UnoptimicedTransforms" /><path
       style="display:inline;fill:#ffffff;fill-opacity:0;stroke:#ffffff;stroke-width:50;stroke-linecap:round;stroke-linejoin:round;stroke-dasharray:none;stroke-opacity:1"
       d="m 943.61951,424.94905 c 21.2165,-26.70928 41.30684,-56.1715 56.69919,-80.95899 -23.52288,-40.04431 -52.34483,-75.82917 -83.15231,-108.98437 -28.57217,14.38182 -56.32515,30.67444 -82.53711,48.01172 -13.11639,-13.0373 -27.88953,-23.70214 -42.40039,-34.84961 -14.25695,-11.45134 -30.32318,-19.84677 -45.5625,-29.62891 4.53724,-33.78791 6.7803,-67.0514 7.68359,-101.76758 -39.32002,-19.789036 -81.24927,-32.909816 -123.66211,-42.333976 -16.9335,28.459766 -32.41939,59.279216 -45.90625,89.408196 -15.99275,-2.67239 -32.05995,-3.66203 -48.14844,-3.85351 v -0.0254 c -0.11239,0 -0.21676,0.0254 -0.3125,0.0254 -0.0999,0 -0.20478,-0.0254 -0.30468,-0.0254 v 0.0254 c -16.11763,0.19148 -32.17106,1.18112 -48.16797,3.85351 -13.47854,-30.12898 -28.95559,-60.94843 -45.91407,-89.408196 -42.39203,9.42416 -84.32671,22.54494 -123.64257,42.333976 0.89912,34.71618 3.14362,67.97967 7.69336,101.76758 -15.26846,9.78214 -31.31507,18.17757 -45.57618,29.62891 -14.49005,11.14747 -29.2896,21.81231 -42.41015,34.84961 -26.21196,-17.33728 -53.95467,-33.6299 -82.53516,-48.01172 -30.80748,33.1552 -59.613286,68.94006 -83.144526,108.98437 18.493057,29.02877 38.329486,58.20569 56.699216,80.95899 v 197.7832 25.1211 l 4e-4,48.87772 4e-4,40.18012 c 0,143.08559 181.51066,211.86025 407.02427,212.65114 h 0.27473 0.2789 c 225.51361,-0.79089 406.96182,-69.56555 406.96182,-212.65114 0,-3.23435 0.19565,-35.78598 0.26225,-50.35512 l -145.43025,13.06227 -4.66629,66.86402 c -0.56195,8.05882 -6.97237,14.4734 -15.03119,15.052 L 638.20277,792.9857 c -0.39138,0.0279 -0.78257,0.0416 -1.16971,0.0416 -7.97555,0 -14.85635,-5.85263 -16.03436,-13.86149 l -9.20297,-62.41419 h -150.952 l -9.20296,62.41419 c -1.23629,8.40015 -8.75097,14.50887 -17.20407,13.81986 L 293.94733,781.53436 c -8.05881,-0.5786 -14.46924,-6.99318 -15.0312,-15.052 l -4.6664,-66.86402 -69.94079,-7.67779"
       id="path1453"
       sodipodi:nodetypes="cccccccccccsccccccccccccccccccscccccsccccscccc" /><text
       xml:space="preserve"
       style="font-style:normal;font-variant:normal;font-weight:normal;font-stretch:normal;font-size:466.667px;line-height:0;font-family:'Fredoka One';-inkscape-font-specification:'Fredoka One';fill:#ffffff;fill-opacity:1;stroke:#ffffff;stroke-width:10;stroke-linecap:square;stroke-linejoin:round;stroke-dasharray:none;stroke-opacity:0;opacity:1"
       x="1171.2094"
       y="683.26678"
       id="text2905"><tspan
         sodipodi:role="line"
         id="tspan2903"
         x="1171.2094"
         y="683.26678">GODOT</tspan></text></g></svg>
